<svg
  width="719"
  height="187"
  viewBox="0 0 719 187"
  fill="none"
  xmlns="http://www.w3.org/2000/svg"
>
    <path
    d="M219.78 145.92H235.332C234.18 138.24 233.796 133.44 233.796 124.8V70.848C233.796 50.112 220.74 39.36 195.396 39.36C180.996 39.36 169.476 43.008 161.604 50.304C156.804 54.528 154.308 58.56 150.852 67.392L165.828 70.656C167.748 64.896 169.284 62.208 171.78 59.52C177.156 53.952 185.028 51.264 195.588 51.264C211.524 51.264 219.78 57.984 219.78 71.04V82.176C196.164 82.752 186.948 83.904 175.62 87.168C157.764 92.16 148.164 103.296 148.164 118.656C148.164 136.896 161.028 147.84 182.148 147.84C188.676 147.84 195.588 146.496 202.116 144C208.644 141.504 212.292 139.008 219.78 132.288V145.92ZM219.78 105.984C219.78 113.664 218.244 117.696 213.828 122.496C206.34 130.752 194.244 136.128 183.108 136.128C170.628 136.128 162.756 129.408 162.756 118.848C162.756 109.632 167.556 103.104 177.348 99.072C185.988 95.424 196.932 94.08 219.78 93.504V105.984Z"
    fill="white"
  />
    <path
    d="M261.674 0V17.088H280.298V0H261.674ZM262.25 42.432C263.21 49.152 263.594 54.912 263.594 64.128V124.224C263.594 132.288 263.21 137.664 262.25 145.92H279.53C278.57 138.432 278.186 133.056 278.186 124.224V64.128C278.186 54.528 278.57 49.152 279.53 42.432H262.25Z"
    fill="white"
  />
    <path
    d="M374.048 42.432C365.984 41.088 362.72 40.704 356.96 40.704C347.744 40.704 341.216 42.624 333.92 47.424C329.888 50.112 327.008 53.184 323.36 59.136C323.552 57.792 323.552 54.912 323.552 53.376V42.432H307.616C308.576 49.344 308.96 54.528 308.96 64.128V124.224C308.96 132.096 308.576 137.088 307.616 145.92H324.896C323.936 138.432 323.552 133.056 323.552 124.416V85.248C324.32 76.608 326.048 72 330.656 66.048C336.416 58.368 344.48 54.336 354.272 54.336C359.072 54.336 362.528 54.912 369.824 57.216L374.048 42.432Z"
    fill="white"
  />
    <path
    d="M407.012 186.24C406.052 179.136 405.668 173.568 405.668 164.544V140.736C405.668 135.552 405.476 132.672 404.9 127.296C413.924 140.544 427.556 147.648 444.452 147.648C473.252 147.648 491.684 126.72 491.684 94.08C491.684 60.672 473.636 40.512 444.068 40.512C426.98 40.512 413.54 47.616 404.9 61.248C405.284 57.984 405.476 55.872 405.476 53.376V42.432H390.116C391.076 49.728 391.46 55.296 391.46 64.512V164.736C391.46 172.608 391.076 178.752 390.116 186.24H407.012ZM443.108 135.168C433.124 135.168 423.524 131.52 416.804 124.992C409.892 118.272 405.86 106.752 405.86 94.272C405.86 69.504 420.836 52.992 442.916 52.992C464.42 52.992 476.708 67.968 476.708 94.08C476.708 119.616 464.036 135.168 443.108 135.168Z"
    fill="white"
  />
    <path
    d="M605.052 96.384C604.668 91.2 603.9 83.712 603.708 81.6C599.868 55.872 582.012 39.936 557.244 39.936C528.444 39.936 509.628 61.44 509.628 94.272C509.628 127.488 528.636 148.608 558.78 148.608C572.796 148.608 584.508 144 593.532 135.168C597.948 130.752 600.444 127.296 604.092 119.232L590.652 113.856C585.276 128.64 574.524 136.32 558.972 136.32C547.452 136.32 538.044 131.712 531.9 123.264C526.716 116.352 524.796 109.248 524.22 96.384H605.052ZM524.796 84.288C525.948 76.992 526.908 73.536 529.596 68.736C535.356 57.984 545.148 52.032 556.86 52.032C566.076 52.032 573.564 54.912 579.516 60.672C585.66 66.624 588.54 73.536 589.692 84.288H524.796Z"
    fill="white"
  />
    <path
    d="M644.583 145.92C643.623 138.432 643.239 132.672 643.239 124.224V87.168C644.775 79.488 647.079 74.688 652.071 68.16C660.135 57.792 668.775 52.992 679.527 52.992C694.695 52.992 702.951 62.208 702.951 79.488V124.224C702.951 132.672 702.567 138.432 701.607 145.92H718.887C717.927 139.584 717.543 134.208 717.543 124.416V76.992C717.543 67.584 715.815 60.48 712.167 54.912C706.023 45.504 695.271 40.512 681.447 40.512C664.167 40.512 651.687 48 642.663 63.744C643.239 59.328 643.239 57.792 643.239 55.488V42.432H627.303C628.455 50.112 628.839 55.488 628.839 64.128V124.224C628.839 133.44 628.455 138.624 627.303 145.92H644.583Z"
    fill="white"
  />
    <path
    d="M36.414 41.6758L43.452 82.0678L11.934 56.0578L0 73.8058L39.168 89.1058L0.918 103.488L11.934 121.848L43.758 95.5318L36.414 136.536H59.058L51.714 95.5318L83.232 121.848L94.248 103.488L56.304 89.1058L95.472 73.8058L83.538 56.0578L52.02 82.0678L59.058 41.6758H36.414Z"
    fill="url(#paint0_linear_0_1)"
  />
    <defs>
    <linearGradient
      id="paint0_linear_0_1"
      x1="47.736"
      y1="41.6758"
      x2="47.736"
      y2="136.536"
      gradientUnits="userSpaceOnUse"
    >
    <stop stop-color="#8B38F5" />
    <stop offset="1" stop-color="#E18844" />
    </linearGradient>
    </defs>
    </svg>
